<mxfile host="65bd71144e">
    <diagram id="HlZOaa3ITaf-mGZHyR-N" name="System Architecture">
        <mxGraphModel dx="846" dy="544" grid="1" gridSize="10" guides="1" tooltips="1" connect="1" arrows="1" fold="1" page="1" pageScale="1" pageWidth="850" pageHeight="1100" math="0" shadow="0">
            <root>
                <mxCell id="4v8Te9H-C4W8dcfFRFbH-0"/>
                <mxCell id="4v8Te9H-C4W8dcfFRFbH-1" parent="4v8Te9H-C4W8dcfFRFbH-0"/>
                <mxCell id="ZGI58gV76ge1yPEyyacR-0" value="User" style="shape=umlActor;verticalLabelPosition=bottom;verticalAlign=top;html=1;outlineConnect=0;" vertex="1" parent="4v8Te9H-C4W8dcfFRFbH-1">
                    <mxGeometry x="50" y="260" width="30" height="60" as="geometry"/>
                </mxCell>
                <mxCell id="ZGI58gV76ge1yPEyyacR-2" value="Blogs-web" style="rounded=0;whiteSpace=wrap;html=1;" vertex="1" parent="4v8Te9H-C4W8dcfFRFbH-1">
                    <mxGeometry x="140" y="251" width="120" height="60" as="geometry"/>
                </mxCell>
                <mxCell id="ZGI58gV76ge1yPEyyacR-3" value="Blogs-service" style="rounded=0;whiteSpace=wrap;html=1;" vertex="1" parent="4v8Te9H-C4W8dcfFRFbH-1">
                    <mxGeometry x="320" y="251" width="120" height="60" as="geometry"/>
                </mxCell>
                <mxCell id="ZGI58gV76ge1yPEyyacR-4" value="PostgreSQL" style="shape=cylinder3;whiteSpace=wrap;html=1;boundedLbl=1;backgroundOutline=1;size=15;" vertex="1" parent="4v8Te9H-C4W8dcfFRFbH-1">
                    <mxGeometry x="520" y="190" width="80" height="80" as="geometry"/>
                </mxCell>
                <mxCell id="ZGI58gV76ge1yPEyyacR-5" value="Redis" style="shape=cylinder3;whiteSpace=wrap;html=1;boundedLbl=1;backgroundOutline=1;size=15;" vertex="1" parent="4v8Te9H-C4W8dcfFRFbH-1">
                    <mxGeometry x="520" y="320" width="80" height="80" as="geometry"/>
                </mxCell>
                <mxCell id="ZGI58gV76ge1yPEyyacR-10" value="Monolithic Architecture" style="text;html=1;strokeColor=none;fillColor=none;align=center;verticalAlign=middle;whiteSpace=wrap;rounded=0;" vertex="1" parent="4v8Te9H-C4W8dcfFRFbH-1">
                    <mxGeometry x="210" y="60" width="270" height="30" as="geometry"/>
                </mxCell>
            </root>
        </mxGraphModel>
    </diagram>
    <diagram id="US44iBsGHJqheg-0w2z6" name="Database">
        <mxGraphModel dx="846" dy="544" grid="1" gridSize="10" guides="1" tooltips="1" connect="1" arrows="1" fold="1" page="1" pageScale="1" pageWidth="850" pageHeight="1100" math="0" shadow="0">
            <root>
                <mxCell id="0"/>
                <mxCell id="1" parent="0"/>
            </root>
        </mxGraphModel>
    </diagram>
</mxfile>